<svg xmlns="http://www.w3.org/2000/svg" xmlns:xlink="http://www.w3.org/1999/xlink" width="500"
    zoomAndPan="magnify" viewBox="0 0 375 374.999991" height="500"
    preserveAspectRatio="xMidYMid meet" version="1.0">
    <defs>
        <clipPath id="62c9ba51dd">
            <path
                d="M 41.125 56.726562 L 274 56.726562 L 274 303 L 41.125 303 Z M 41.125 56.726562 "
                clip-rule="nonzero" />
        </clipPath>
        <clipPath id="10713655ce">
            <path d="M 58 127 L 316.175781 127 L 316.175781 331.777344 L 58 331.777344 Z M 58 127 "
                clip-rule="nonzero" />
        </clipPath>
        <clipPath id="21e8733cf2">
            <path d="M 165 82 L 295 82 L 295 293 L 165 293 Z M 165 82 " clip-rule="nonzero" />
        </clipPath>
        <clipPath id="6a5102e00c">
            <path
                d="M 333.867188 224.957031 L 152.351562 331.375 L 45.929688 149.859375 L 227.449219 43.4375 Z M 333.867188 224.957031 "
                clip-rule="nonzero" />
        </clipPath>
        <clipPath id="f9f5d05531">
            <path
                d="M 333.867188 224.957031 L 152.351562 331.375 L 45.929688 149.859375 L 227.449219 43.4375 Z M 333.867188 224.957031 "
                clip-rule="nonzero" />
        </clipPath>
        <clipPath id="1206937d12">
            <path d="M 91 103 L 268 103 L 268 285 L 91 285 Z M 91 103 " clip-rule="nonzero" />
        </clipPath>
        <clipPath id="f6f2897b7d">
            <path
                d="M 333.867188 224.957031 L 152.351562 331.375 L 45.929688 149.859375 L 227.449219 43.4375 Z M 333.867188 224.957031 "
                clip-rule="nonzero" />
        </clipPath>
        <clipPath id="c0aca72c05">
            <path
                d="M 333.867188 224.957031 L 152.351562 331.375 L 45.929688 149.859375 L 227.449219 43.4375 Z M 333.867188 224.957031 "
                clip-rule="nonzero" />
        </clipPath>
        <clipPath id="883c8ca174">
            <path d="M 81 86 L 280 86 L 280 226 L 81 226 Z M 81 86 " clip-rule="nonzero" />
        </clipPath>
        <clipPath id="3a18e11f4c">
            <path
                d="M 333.867188 224.957031 L 152.351562 331.375 L 45.929688 149.859375 L 227.449219 43.4375 Z M 333.867188 224.957031 "
                clip-rule="nonzero" />
        </clipPath>
        <clipPath id="012f2157c8">
            <path
                d="M 333.867188 224.957031 L 152.351562 331.375 L 45.929688 149.859375 L 227.449219 43.4375 Z M 333.867188 224.957031 "
                clip-rule="nonzero" />
        </clipPath>
    </defs>
    <g clip-path="url(#62c9ba51dd)">
        <path fill="#fd8847"
            d="M 49.878906 202.246094 C 49.878906 126.0625 111.640625 64.296875 187.84375 64.296875 C 220.300781 64.296875 250.140625 75.507812 273.695312 94.261719 C 249.007812 70.996094 215.726562 56.726562 179.109375 56.726562 C 102.90625 56.726562 41.144531 118.488281 41.144531 194.691406 C 41.144531 238.421875 61.488281 277.394531 93.242188 302.675781 C 66.535156 277.515625 49.878906 241.832031 49.878906 202.246094 Z M 49.878906 202.246094 "
            fill-opacity="1" fill-rule="evenodd" />
    </g>
    <path fill="#8d54fb"
        d="M 245.582031 86.140625 C 284.035156 105.71875 310.375 145.667969 310.375 191.769531 C 310.375 257.203125 257.332031 310.234375 191.910156 310.234375 C 126.492188 310.234375 73.449219 257.203125 73.449219 191.769531 C 73.449219 183.753906 74.242188 175.9375 75.773438 168.367188 C 75.007812 173.660156 74.609375 179.074219 74.609375 184.566406 C 74.609375 247.429688 125.558594 298.378906 188.425781 298.378906 C 251.273438 298.378906 302.222656 247.429688 302.222656 184.566406 C 302.222656 142.550781 279.449219 105.855469 245.582031 86.140625 Z M 245.582031 86.140625 "
        fill-opacity="1" fill-rule="evenodd" />
    <g clip-path="url(#10713655ce)">
        <path fill="#fcfbfc"
            d="M 191.910156 318.675781 C 121.828125 318.675781 65.003906 261.855469 65.003906 191.769531 C 65.003906 168.125 71.476562 145.976562 82.746094 127.023438 C 67.558594 148.207031 58.613281 174.195312 58.613281 202.246094 C 58.613281 273.632812 116.457031 331.480469 187.84375 331.480469 C 253.933594 331.480469 308.449219 281.84375 316.140625 217.816406 C 304.117188 275.40625 253.078125 318.675781 191.910156 318.675781 Z M 191.910156 318.675781 "
            fill-opacity="1" fill-rule="evenodd" />
    </g>
    <g clip-path="url(#21e8733cf2)">
        <g clip-path="url(#6a5102e00c)">
            <g clip-path="url(#f9f5d05531)">
                <path fill="#fd8847"
                    d="M 271.757812 132.257812 C 301.25 182.5625 284.378906 247.253906 234.0625 276.753906 C 212.632812 289.316406 188.585938 293.464844 165.773438 290.203125 C 191.082031 296.007812 218.582031 292.546875 242.761719 278.371094 C 293.078125 248.871094 309.949219 184.179688 280.449219 133.863281 C 263.519531 104.988281 235 87.132812 204.246094 82.730469 C 231.621094 89.003906 256.433594 106.117188 271.757812 132.257812 Z M 271.757812 132.257812 "
                    fill-opacity="1" fill-rule="evenodd" />
            </g>
        </g>
    </g>
    <g clip-path="url(#1206937d12)">
        <g clip-path="url(#f6f2897b7d)">
            <g clip-path="url(#c0aca72c05)">
                <path fill="#8d54fb"
                    d="M 187.480469 284.683594 C 154.511719 286.640625 121.65625 270.457031 103.808594 240.019531 C 78.476562 196.8125 92.972656 141.261719 136.171875 115.9375 C 179.367188 90.613281 234.917969 105.09375 260.25 148.296875 C 263.351562 153.589844 265.855469 159.058594 267.773438 164.652344 C 266.230469 160.859375 264.398438 157.132812 262.273438 153.503906 C 237.9375 111.996094 184.570312 98.078125 143.0625 122.414062 C 101.5625 146.746094 87.644531 200.109375 111.980469 241.617188 C 128.246094 269.363281 157.488281 284.773438 187.480469 284.683594 Z M 187.480469 284.683594 "
                    fill-opacity="1" fill-rule="evenodd" />
            </g>
        </g>
    </g>
    <g clip-path="url(#883c8ca174)">
        <g clip-path="url(#3a18e11f4c)">
            <g clip-path="url(#012f2157c8)">
                <path fill="#fcfbfc"
                    d="M 132.902344 110.363281 C 179.175781 83.230469 238.695312 98.753906 265.824219 145.03125 C 274.980469 160.644531 279.28125 177.773438 279.175781 194.648438 C 281.003906 174.78125 276.851562 154.160156 265.992188 135.636719 C 238.355469 88.503906 177.765625 72.699219 130.632812 100.335938 C 86.992188 125.917969 70.210938 179.796875 89.917969 225.050781 C 75.5625 182.371094 92.511719 134.042969 132.902344 110.363281 Z M 132.902344 110.363281 "
                    fill-opacity="1" fill-rule="evenodd" />
            </g>
        </g>
    </g>
</svg>